<svg width="540" height="901" viewBox="0 0 540 901" fill="none" xmlns="http://www.w3.org/2000/svg">
<g filter="url(#filter0_f)">
<rect x="20" y="79.0002" width="500" height="722.222" fill="black" fill-opacity="0.15"/>
</g>
<rect x="25" y="83.0002" width="490.741" height="712.963" fill="#FAD1D3"/>
<g filter="url(#filter1_f)">
<path d="M335.692 79.1282C335.71 87.6756 334.099 96.1434 330.952 104.048C327.804 111.953 323.181 119.14 317.347 125.199C311.513 131.258 304.583 136.07 296.951 139.36C289.318 142.65 281.135 144.355 272.866 144.376C264.598 144.397 256.407 142.734 248.761 139.482C241.115 136.231 234.164 131.454 228.305 125.425C222.445 119.396 217.793 112.232 214.612 104.344C211.431 96.4549 209.785 87.9953 209.767 79.4479L272.729 79.2881L335.692 79.1282Z" fill="black" fill-opacity="0.15"/>
</g>
<path d="M331.062 65.0875C331.08 73.6349 329.469 82.1027 326.322 90.0075C323.174 97.9124 318.551 105.099 312.718 111.158C306.884 117.217 299.953 122.029 292.321 125.319C284.689 128.609 276.505 130.314 268.236 130.335C259.968 130.356 251.777 128.693 244.131 125.442C236.485 122.19 229.534 117.413 223.675 111.384C217.816 105.355 213.163 98.1917 209.982 90.3029C206.801 82.4142 205.155 73.9546 205.137 65.4072L268.099 65.2474L331.062 65.0875Z" fill="white"/>
<g filter="url(#filter2_f)">
<path d="M209.938 804.006C209.92 796.227 211.531 788.521 214.678 781.327C217.826 774.133 222.449 767.593 228.282 762.079C234.116 756.565 241.047 752.186 248.679 749.192C256.311 746.197 264.495 744.646 272.764 744.627C281.032 744.608 289.223 746.121 296.869 749.08C304.515 752.039 311.466 756.387 317.325 761.873C323.184 767.36 327.837 773.879 331.018 781.058C334.199 788.238 335.845 795.936 335.863 803.715L272.901 803.86L209.938 804.006Z" fill="black" fill-opacity="0.15"/>
</g>
<path d="M205.348 823.908C205.325 813.881 206.931 803.948 210.073 794.676C213.216 785.405 217.834 776.976 223.665 769.872C229.495 762.768 236.423 757.128 244.053 753.273C251.683 749.418 259.866 747.424 268.134 747.405C276.403 747.386 284.595 749.342 292.242 753.162C299.89 756.981 306.844 762.59 312.707 769.667C318.57 776.744 323.228 785.15 326.413 794.407C329.599 803.664 331.25 813.59 331.273 823.617L268.311 823.763L205.348 823.908Z" fill="white"/>
<defs>
<filter id="filter0_f" x="0" y="59.0002" width="540" height="762.222" filterUnits="userSpaceOnUse" color-interpolation-filters="sRGB">
<feFlood flood-opacity="0" result="BackgroundImageFix"/>
<feBlend mode="normal" in="SourceGraphic" in2="BackgroundImageFix" result="shape"/>
<feGaussianBlur stdDeviation="10" result="effect1_foregroundBlur"/>
</filter>
<filter id="filter1_f" x="189.767" y="59.1282" width="165.925" height="105.248" filterUnits="userSpaceOnUse" color-interpolation-filters="sRGB">
<feFlood flood-opacity="0" result="BackgroundImageFix"/>
<feBlend mode="normal" in="SourceGraphic" in2="BackgroundImageFix" result="shape"/>
<feGaussianBlur stdDeviation="10" result="effect1_foregroundBlur"/>
</filter>
<filter id="filter2_f" x="179.801" y="714.482" width="186.062" height="119.524" filterUnits="userSpaceOnUse" color-interpolation-filters="sRGB">
<feFlood flood-opacity="0" result="BackgroundImageFix"/>
<feBlend mode="normal" in="SourceGraphic" in2="BackgroundImageFix" result="shape"/>
<feGaussianBlur stdDeviation="15" result="effect1_foregroundBlur"/>
</filter>
</defs>
</svg>
