<svg width="312" height="512" viewBox="0 0 312 512" fill="none" xmlns="http://www.w3.org/2000/svg">
<g filter="url(#filter0_f)">
<rect x="6" y="39.4443" width="300" height="433.333" fill="black" fill-opacity="0.15"/>
</g>
<g filter="url(#filter1_dd)">
<rect x="8.77783" y="42.2221" width="294.444" height="427.778" fill="#FAD1D3"/>
<rect x="9.29926" y="42.7435" width="293.402" height="426.735" stroke="#FAD1D3" stroke-width="1.04286"/>
</g>
<g filter="url(#filter2_f)">
<path d="M194.971 37.2066C194.981 41.8738 194.015 46.4975 192.126 50.8138C190.238 55.1301 187.464 59.0545 183.964 62.3628C180.464 65.6711 176.305 68.2985 171.726 70.0952C167.146 71.8918 162.236 72.8224 157.275 72.8339C152.314 72.8454 147.4 71.9375 142.812 70.162C138.225 68.3865 134.054 65.7783 130.538 62.4862C127.023 59.1941 124.231 55.2827 122.323 50.9751C120.414 46.6676 119.426 42.0484 119.415 37.3812L157.193 37.2939L194.971 37.2066Z" fill="black" fill-opacity="0.25"/>
</g>
<path d="M192.193 35.54C192.204 40.2071 191.237 44.8309 189.349 49.1472C187.46 53.4635 184.686 57.3878 181.186 60.6961C177.686 64.0044 173.527 66.6319 168.948 68.4285C164.369 70.2251 159.458 71.1558 154.497 71.1672C149.536 71.1787 144.622 70.2708 140.034 68.4953C135.447 66.7198 131.276 64.1116 127.76 60.8195C124.245 57.5274 121.453 53.616 119.545 49.3085C117.636 45.0009 116.648 40.3817 116.638 35.7145L154.415 35.6273L192.193 35.54Z" fill="white"/>
<g filter="url(#filter3_f)">
<path d="M119.251 474.603C119.24 469.936 120.207 465.313 122.095 460.996C123.984 456.68 126.757 452.756 130.258 449.447C133.758 446.139 137.917 443.512 142.496 441.715C147.075 439.918 151.986 438.988 156.947 438.976C161.908 438.965 166.822 439.873 171.41 441.648C175.997 443.424 180.168 446.032 183.683 449.324C187.199 452.616 189.991 456.527 191.899 460.835C193.808 465.142 194.795 469.762 194.806 474.429L157.029 474.516L119.251 474.603Z" fill="black" fill-opacity="0.25"/>
</g>
<path d="M116.474 476.27C116.463 471.603 117.429 466.979 119.318 462.663C121.206 458.347 123.98 454.422 127.48 451.114C130.981 447.806 135.139 445.178 139.718 443.382C144.298 441.585 149.208 440.654 154.169 440.643C159.13 440.631 164.045 441.539 168.632 443.315C173.22 445.09 177.39 447.698 180.906 450.991C184.421 454.283 187.213 458.194 189.122 462.502C191.03 466.809 192.018 471.428 192.029 476.096L154.251 476.183L116.474 476.27Z" fill="white"/>
<defs>
<filter id="filter0_f" x="1.82857" y="35.2729" width="308.343" height="441.676" filterUnits="userSpaceOnUse" color-interpolation-filters="sRGB">
<feFlood flood-opacity="0" result="BackgroundImageFix"/>
<feBlend mode="normal" in="SourceGraphic" in2="BackgroundImageFix" result="shape"/>
<feGaussianBlur stdDeviation="2.08571" result="effect1_foregroundBlur"/>
</filter>
<filter id="filter1_dd" x="0.434975" y="33.8792" width="311.13" height="444.463" filterUnits="userSpaceOnUse" color-interpolation-filters="sRGB">
<feFlood flood-opacity="0" result="BackgroundImageFix"/>
<feColorMatrix in="SourceAlpha" type="matrix" values="0 0 0 0 0 0 0 0 0 0 0 0 0 0 0 0 0 0 127 0"/>
<feOffset dx="-4.17143" dy="-4.17143"/>
<feGaussianBlur stdDeviation="2.08571"/>
<feColorMatrix type="matrix" values="0 0 0 0 0 0 0 0 0 0 0 0 0 0 0 0 0 0 0.15 0"/>
<feBlend mode="normal" in2="BackgroundImageFix" result="effect1_dropShadow"/>
<feColorMatrix in="SourceAlpha" type="matrix" values="0 0 0 0 0 0 0 0 0 0 0 0 0 0 0 0 0 0 127 0"/>
<feOffset dx="4.17143" dy="4.17143"/>
<feGaussianBlur stdDeviation="2.08571"/>
<feColorMatrix type="matrix" values="0 0 0 0 0 0 0 0 0 0 0 0 0 0 0 0 0 0 0.15 0"/>
<feBlend mode="normal" in2="effect1_dropShadow" result="effect2_dropShadow"/>
<feBlend mode="normal" in="SourceGraphic" in2="effect2_dropShadow" result="shape"/>
</filter>
<filter id="filter2_f" x="115.416" y="33.2066" width="83.5552" height="43.6274" filterUnits="userSpaceOnUse" color-interpolation-filters="sRGB">
<feFlood flood-opacity="0" result="BackgroundImageFix"/>
<feBlend mode="normal" in="SourceGraphic" in2="BackgroundImageFix" result="shape"/>
<feGaussianBlur stdDeviation="2" result="effect1_foregroundBlur"/>
</filter>
<filter id="filter3_f" x="115.251" y="434.976" width="83.5552" height="43.6274" filterUnits="userSpaceOnUse" color-interpolation-filters="sRGB">
<feFlood flood-opacity="0" result="BackgroundImageFix"/>
<feBlend mode="normal" in="SourceGraphic" in2="BackgroundImageFix" result="shape"/>
<feGaussianBlur stdDeviation="2" result="effect1_foregroundBlur"/>
</filter>
</defs>
</svg>
