<svg width="1388" height="572" viewBox="0 0 1388 572" fill="none" xmlns="http://www.w3.org/2000/svg">
<g filter="url(#filter0_f)">
<rect x="76.0002" y="8" width="1235" height="560" fill="black" fill-opacity="0.15"/>
</g>
<g filter="url(#filter1_dd)">
<rect x="81" y="8" width="1225" height="550" fill="#FAD1D3"/>
<rect x="81.5" y="8.5" width="1224" height="549" stroke="#FAD1D3"/>
</g>
<g filter="url(#filter2_f)">
<path d="M1320.29 358.147C1311.89 358.167 1303.56 356.427 1295.79 353.028C1288.02 349.628 1280.96 344.636 1275.01 338.335C1269.05 332.034 1264.32 324.549 1261.09 316.306C1257.85 308.064 1256.18 299.225 1256.16 290.295C1256.14 281.365 1257.77 272.519 1260.97 264.262C1264.16 256.004 1268.86 248.497 1274.78 242.169C1280.71 235.841 1287.75 230.816 1295.5 227.381C1303.26 223.945 1311.57 222.167 1319.97 222.148L1320.13 290.147L1320.29 358.147Z" fill="black" fill-opacity="0.25"/>
</g>
<path d="M1323.29 353.147C1314.89 353.167 1306.56 351.427 1298.79 348.028C1291.02 344.628 1283.96 339.636 1278.01 333.335C1272.05 327.034 1267.32 319.549 1264.09 311.306C1260.85 303.064 1259.18 294.225 1259.16 285.295C1259.14 276.365 1260.77 267.519 1263.97 259.262C1267.16 251.004 1271.86 243.497 1277.78 237.169C1283.71 230.841 1290.75 225.816 1298.5 222.381C1306.26 218.945 1314.57 217.167 1322.97 217.148L1323.13 285.147L1323.29 353.147Z" fill="white"/>
<g filter="url(#filter3_f)">
<path d="M66.9721 358.147C75.373 358.167 83.6957 356.427 91.465 353.028C99.2344 349.628 106.298 344.636 112.253 338.335C118.208 332.034 122.938 324.549 126.171 316.306C129.405 308.064 131.081 299.225 131.101 290.295C131.122 281.365 129.488 272.519 126.292 264.262C123.096 256.004 118.401 248.497 112.475 242.169C106.55 235.841 99.5089 230.816 91.7554 227.381C84.0019 223.945 75.6873 222.167 67.2864 222.148L67.1292 290.147L66.9721 358.147Z" fill="black" fill-opacity="0.25"/>
</g>
<path d="M63.9721 353.147C72.373 353.167 80.6957 351.427 88.465 348.028C96.2344 344.628 103.298 339.636 109.253 333.335C115.208 327.034 119.938 319.549 123.171 311.306C126.405 303.064 128.081 294.225 128.101 285.295C128.122 276.365 126.488 267.519 123.292 259.262C120.096 251.004 115.401 243.497 109.475 237.169C103.55 230.841 96.5089 225.816 88.7554 222.381C81.0019 218.945 72.6873 217.167 64.2864 217.148L64.1292 285.147L63.9721 353.147Z" fill="white"/>
<defs>
<filter id="filter0_f" x="72.0002" y="4" width="1243" height="568" filterUnits="userSpaceOnUse" color-interpolation-filters="sRGB">
<feFlood flood-opacity="0" result="BackgroundImageFix"/>
<feBlend mode="normal" in="SourceGraphic" in2="BackgroundImageFix" result="shape"/>
<feGaussianBlur stdDeviation="2" result="effect1_foregroundBlur"/>
</filter>
<filter id="filter1_dd" x="73" y="0" width="1241" height="566" filterUnits="userSpaceOnUse" color-interpolation-filters="sRGB">
<feFlood flood-opacity="0" result="BackgroundImageFix"/>
<feColorMatrix in="SourceAlpha" type="matrix" values="0 0 0 0 0 0 0 0 0 0 0 0 0 0 0 0 0 0 127 0"/>
<feOffset dx="-4" dy="-4"/>
<feGaussianBlur stdDeviation="2"/>
<feColorMatrix type="matrix" values="0 0 0 0 0 0 0 0 0 0 0 0 0 0 0 0 0 0 0.15 0"/>
<feBlend mode="normal" in2="BackgroundImageFix" result="effect1_dropShadow"/>
<feColorMatrix in="SourceAlpha" type="matrix" values="0 0 0 0 0 0 0 0 0 0 0 0 0 0 0 0 0 0 127 0"/>
<feOffset dx="4" dy="4"/>
<feGaussianBlur stdDeviation="2"/>
<feColorMatrix type="matrix" values="0 0 0 0 0 0 0 0 0 0 0 0 0 0 0 0 0 0 0.15 0"/>
<feBlend mode="normal" in2="effect1_dropShadow" result="effect2_dropShadow"/>
<feBlend mode="normal" in="SourceGraphic" in2="effect2_dropShadow" result="shape"/>
</filter>
<filter id="filter2_f" x="1252" y="218.148" width="72.2862" height="144.147" filterUnits="userSpaceOnUse" color-interpolation-filters="sRGB">
<feFlood flood-opacity="0" result="BackgroundImageFix"/>
<feBlend mode="normal" in="SourceGraphic" in2="BackgroundImageFix" result="shape"/>
<feGaussianBlur stdDeviation="2" result="effect1_foregroundBlur"/>
</filter>
<filter id="filter3_f" x="62.9722" y="218.148" width="72.2862" height="144.147" filterUnits="userSpaceOnUse" color-interpolation-filters="sRGB">
<feFlood flood-opacity="0" result="BackgroundImageFix"/>
<feBlend mode="normal" in="SourceGraphic" in2="BackgroundImageFix" result="shape"/>
<feGaussianBlur stdDeviation="2" result="effect1_foregroundBlur"/>
</filter>
</defs>
</svg>
